<svg xmlns="http://www.w3.org/2000/svg" viewBox="0 0 640 480" width="640" height="480">
  <rect width="640" height="480" fill="#1a1a2e"/>

  <!-- Koder logomarca (icon + text) centered at top -->
  <g transform="translate(120, 100) scale(0.66)">
    <!-- Icon -->
    <g transform="translate(16, 16.0)">
      <rect x="2.56" y="2.56" width="122.88" height="122.88" rx="16.64" ry="16.64" fill="none" stroke="#5BC8F5" stroke-width="5.12"/>
      <polyline points="32.0,38.4 61.4,64.0 32.0,89.6" fill="none" stroke="#FF6600" stroke-width="10.24" stroke-linecap="round" stroke-linejoin="round"/>
      <line x1="83.2" y1="35.8" x2="83.2" y2="92.2" stroke="#FF6600" stroke-width="10.24" stroke-linecap="round"/>
    </g>
    <!-- KODER text paths -->
    <g transform="translate(192.00, 115.20) scale(0.092388, -0.092388)">
      <path d="M885 714H724L406 428V427C401 423 395 419 387 415C379 412 371 411 364 411H108V714H0V0H108V303H364C371 303 379 302 387 299C395 295 402 291 407 287L723 0H885L490 357L885 714Z" fill="white" transform="translate(0.0, 0)"/>
      <path d="M149 0H673C755 0 822 67 822 149V375C822 457 755 524 673 524H149C67 524 0 457 0 375V149C0 67 67 0 149 0ZM149 416H673C696 416 714 398 714 375V149C714 126 696 108 673 108H149C126 108 108 126 108 149V375C108 398 126 416 149 416Z" fill="white" transform="translate(985.0, 0)"/>
      <path d="M149 0H822V762H714V108H149C126 108 108 126 108 149V375C108 398 126 416 149 416H667V524H149C67 524 0 457 0 375V149C0 67 67 0 149 0Z" fill="white" transform="translate(1927.0, 0)"/>
      <path d="M149 0H822V108H149C126 108 108 126 108 149V375C108 398 126 416 149 416H673C696 416 714 398 714 375V316H155V208H822V375C822 457 755 524 673 524H149C67 524 0 457 0 375V149C0 67 67 0 149 0Z" fill="white" transform="translate(2869.0, 0)"/>
      <path d="M0 0H108V375C108 398 126 416 149 416H536V524H149C67 524 0 457 0 375V0Z" fill="white" transform="translate(3811.0, 0)"/>
    </g>
  </g>
</svg>
